# AST/ASF file generated using VICON BodyLanguage
# -----------------------------------------------
:version 1.10
:name VICON
:units
  mass 1.0
  length 0.45
  angle deg
:documentation
   .ast/.asf automatically generated from VICON data using
   VICON BodyBuilder and BodyLanguage model FoxedUp or BRILLIANT.MOD
:root
   order TX TY TZ RX RY RZ
   axis XYZ
   position 0 0 0  
   orientation 0 0 0 
:bonedata
  begin
     id 1 
     name lhipjoint
     direction 0.630082 -0.636569 0.44472 
     length 2.82754 
     axis 0 0 0  XYZ
  end
  begin
     id 2 
     name lfemur
     direction 0.34202 -0.939693 0  
     length 7.26371  
     axis 0 0 20  XYZ
    dof rx ry rz
    limits (-160.0 20.0)
           (-70.0 70.0)
           (-60.0 70.0)
  end
  begin
     id 3 
     name ltibia
     direction 0.34202 -0.939693 0   
     length 7.88616   
     axis 0 0 20   XYZ
    dof rx
    limits (-10.0 170.0)
  end
  begin
     id 4 
     name lfoot
     direction 0.0603448 -0.165796 0.984312   
     length 1.77861   
     axis -90 7.62852e-016 20   XYZ
    dof rx rz
    limits (-45.0 90.0)
           (-70.0 20.0)
  end
  begin
     id 5 
     name ltoes
     direction 1.53577e-011 -4.21876e-011 1   
     length 0.902235   
     axis -90 7.62852e-016 20   XYZ
    dof rx
    limits (-90.0 20.0)
  end
  begin
     id 6 
     name rhipjoint
     direction -0.656778 -0.61817 0.431866   
     length 2.9117  
     axis 0 0 0  XYZ 
  end
  begin
     id 7 
     name rfemur
     direction -0.34202 -0.939693 0   
     length 6.81603   
     axis 0 0 -20   XYZ
    dof rx ry rz
    limits (-160.0 20.0)
           (-70.0 70.0)
           (-70.0 60.0)
  end
  begin
     id 8 
     name rtibia
     direction -0.34202 -0.939693 0   
     length 8.05997   
     axis 0 0 -20   XYZ
    dof rx
    limits (-10.0 170.0)
 end
 begin
     id 9 
     name rfoot
     direction -0.0862404 -0.236944 0.967688   
     length 1.84899  
     axis -90 -7.62852e-016 -20   XYZ
    dof rx rz
    limits (-45.0 90.0)
           (-20.0 70.0)
  end
  begin
     id 10 
     name rtoes
     direction -1.53561e-011 -4.21798e-011 1   
     length 0.931579   
     axis -90 -7.62852e-016 -20   XYZ
    dof rx
    limits (-90.0 20.0)
  end
  begin
     id 11 
     name lowerback
     direction -0.0110203 0.991769 -0.127564   
     length 2.05686   
     axis 0 0 0   XYZ
    dof rx ry rz
    limits (-20.0 45.0)
           (-30.0 30.0)
           (-30.0 30.0)
  end
  begin
     id 12 
     name upperback
     direction 0.0109719 0.99993 -0.00432479   
     length 2.06234   
     axis 0 0 0   XYZ
    dof rx ry rz
    limits (-20.0 45.0)
           (-30.0 30.0)
           (-30.0 30.0)
  end
  begin
     id 13 
     name thorax
     direction 0.0173308 0.998351 0.0547306   
     length 2.09856   
     axis 0 0 0   XYZ
    dof rx ry rz
    limits (-20.0 45.0)
           (-30.0 30.0)
           (-30.0 30.0)
  end
  begin
     id 14 
     name lowerneck
     direction -0.0311736 0.989033 0.144366   
     length 1.98151   
     axis 0 0 0   XYZ
    dof rx ry rz
    limits (-20.0 45.0)
           (-30.0 30.0)
           (-30.0 30.0)
  end
  begin
     id 15 
     name upperneck
     direction 0.0421057 0.975772 -0.214698   
     length 2.01457   
     axis 0 0 0   XYZ
    dof rx ry rz
    limits (-20.0 45.0)
           (-30.0 30.0)
           (-30.0 30.0)
  end
  begin
     id 16
     name head
     direction 0.0136911 0.995958 -0.0887718  
     length 2.03562  
     axis 0 0 0   XYZ
    dof rx ry rz
    limits (-20.0 45.0)
           (-30.0 30.0)
           (-30.0 30.0)
  end
  begin
     id 17 
     name lclavicle
     direction 0.915335 0.396201 0.0720134  
     length 4.16217  
     axis 0 0 0   XYZ
    dof ry rz
    limits (-20.0 10.0)
           (0.0 20.0)
  end
  begin
     id 18 
     name lhumerus
     direction 1 -4.48965e-011 6.383e-018   
     length 4.93042   
     axis -180 -30 -90   XYZ
    dof rx ry rz
    limits (-60.0 90.0)
           (-90.0 90.0)
           (-90.0 90.0)
  end
  begin
     id 19
     name lradius
     direction 1 -4.48972e-011 8.8689e-027   
     length 3.68177   
     axis -180 -30 -90   XYZ
    dof rx
    limits (-10.0 170.0)
  end
  begin
     id 20
     name lwrist
     direction 1 -4.48953e-011 1.17971e-026   
     length 1.84089   
     axis -7.69454e-015 90 90   XYZ
    dof ry
    limits (-180.0 0.0)
 end
  begin
     id 21 
     name lhand
     direction 1 -4.49027e-011 2.35802e-026   
     length 0.721479   
     axis -1.50533e-014 90 90   XYZ
    dof rx rz
    limits (-90.0 90.0)
           (-45.0 45.0)
  end
  begin
     id 22 
     name lfingers
     direction 1 -4.48915e-011 4.72027e-026   
     length 0.581675   
     axis -3.01059e-014 90 90   XYZ
    dof rx
    limits (0.0 90.0)
  end
  begin
     id 23
     name lthumb
     direction 0.707107 -6.34948e-011 0.707107   
     length 0.835172   
     axis -90 45 -5.12164e-014   XYZ
    dof rx rz
    limits (-45.0 45.0)
           (-45.0 45.0)
  end
  begin
     id 24 
     name rclavicle
     direction -0.882781 0.469197 0.0234974   
     length 3.95647  
     axis 0 0 0   XYZ 
    dof ry rz
    limits (-10.0 20.0)
           (-20.0 0.0)
  end
  begin
     id 25 
     name rhumerus
     direction -1 -4.48965e-011 -1.54906e-018  
     length 5.07905   
     axis -180 30 90   XYZ
    dof rx ry rz
    limits (-90.0 60.0)
           (-90.0 90.0)
           (-90.0 90.0)
  end
  begin
     id 26 
     name rradius
     direction -1 -4.48972e-011 5.47489e-027   
     length 3.54394   
     axis -180 30 90   XYZ
    dof rx
    limits (-10.0 170.0)
  end
  begin
     id 27 
     name rwrist
     direction -1 -4.48955e-011 1.17969e-026   
     length 1.77197   
     axis -7.69454e-015 -90 -90   XYZ
    dof ry
    limits (-180.0 0.0)
  end
  begin
     id 28
     name rhand
     direction -1 -4.48982e-011 2.35888e-026   
     length 0.681156   
     axis -1.50533e-014 -90 -90   XYZ
    dof rx rz
    limits (-90.0 90.0)
           (-45.0 45.0)
  end
  begin
     id 29
     name rfingers
     direction -1 -4.48955e-011 4.71877e-026   
     length 0.549165   
     axis -3.01059e-014 -90 -90   XYZ
    dof rx
    limits (0.0 90.0)
  end
  begin
     id 30
     name rthumb
     direction -0.707107 -6.3491e-011 0.707107   
     length 0.788495   
     axis -90 -45 5.12164e-014   XYZ
    dof rx rz
    limits (-45.0 45.0)
           (-45.0 45.0)
  end
:hierarchy
  begin
    root lhipjoint rhipjoint lowerback
    lhipjoint lfemur
    lfemur ltibia
    ltibia lfoot
    lfoot ltoes
    rhipjoint rfemur
    rfemur rtibia
    rtibia rfoot
    rfoot rtoes
    lowerback upperback
    upperback thorax
    thorax lowerneck lclavicle rclavicle
    lowerneck upperneck
    upperneck head
    lclavicle lhumerus
    lhumerus lradius
    lradius lwrist
    lwrist lhand lthumb
    lhand lfingers
    rclavicle rhumerus
    rhumerus rradius
    rradius rwrist
    rwrist rhand rthumb
    rhand rfingers
  end

#!OML:ASF H:\Bending\Project 1\Capture day 1\Session 1\Subject.ASF
:FULLY-SPECIFIED
:DEGREES
156
root -11.4851 18.1308 -16.8822 -147.875 86.7662 -175.396
lowerback 39.2791 -1.19553 1.62147
upperback 10.0194 0.75039 2.40549
thorax -7.98748 0.803555 1.34803
lowerneck -20.5471 -3.48382 -6.43339
upperneck -0.142663 -3.2083 5.77322
head 3.36324 -1.20222 2.55546
rclavicle -3.89618e-014 -2.92213e-014
rhumerus 17.8927 15.8988 -76.7193
rradius 38.7337
rwrist -1.34958
rhand -26.383 -29.6184
rfingers 7.12502
rthumb 0.175809 -59.5981
lclavicle -3.89618e-014 -2.92213e-014
lhumerus 14.2428 -29.1199 83.2346
lradius 48.3353
lwrist 47.8172
lhand -29.0642 17.9608
lfingers 7.12502
lthumb -2.41376 47.9269
rfemur -40.1434 -7.65072 14.9236
rtibia 22.9639
rfoot -7.10304 -12.2176
rtoes -9.16592
lfemur -48.1723 -1.23643 -12.0754
ltibia 33.9869
lfoot -11.6901 1.65532
ltoes -15.1202
157
root -11.4657 18.1665 -16.8822 -140.701 86.8869 -167.505
lowerback 38.2723 -1.04447 1.52325
upperback 9.74528 0.814876 2.5205
thorax -7.9679 0.809216 1.49858
lowerneck -20.9122 -3.41294 -6.34587
upperneck 0.85084 -3.16325 5.70143
head 3.71882 -1.18882 2.51732
rclavicle -1.43125e-014 -9.14409e-015
rhumerus 15.5943 16.346 -77.7937
rradius 39.326
rwrist -1.07381
rhand -27.1363 -29.4114
rfingers 7.12502
rthumb -0.551765 -59.3904
lclavicle -1.43125e-014 -9.14409e-015
lhumerus 11.082 -29.6051 84.2725
lradius 49.4285
lwrist 48.3029
lhand -28.8155 18.1585
lfingers 7.12502
lthumb -2.17349 48.1272
rfemur -38.0053 -7.00718 15.1053
rtibia 20.6755
rfoot -6.36748 -12.4568
rtoes -9.27731
lfemur -46.8023 -1.62978 -11.4263
ltibia 33.2755
lfoot -11.9304 2.50604
ltoes -15.6303
158
root -11.4432 18.2019 -16.8814 -134.327 86.948 -160.521
lowerback 37.235 -0.908544 1.44519
upperback 9.42056 0.866311 2.62846
thorax -7.9823 0.807748 1.63728
lowerneck -21.3891 -3.34137 -6.18188
upperneck 1.88773 -3.11895 5.49983
head 4.10211 -1.18051 2.4261
rclavicle 2.50469e-014 9.14409e-015
rhumerus 13.3599 16.6491 -78.8352
rradius 39.8743
rwrist -0.697169
rhand -27.5675 -28.5066
rfingers 7.12502
rthumb -0.968209 -58.4842
lclavicle 2.50469e-014 9.14409e-015
lhumerus 7.9894 -30.1829 85.204
lradius 50.5487
lwrist 48.8554
lhand -28.4903 18.3552
lfingers 7.12502
lthumb -1.85947 48.3269
rfemur -35.8654 -6.30772 15.1829
rtibia 18.2228
rfoot -5.59521 -12.7879
rtoes -8.92377
lfemur -45.4861 -2.09236 -10.8276
ltibia 32.4521
lfoot -12.1367 3.32851
ltoes -15.8568
159
root -11.4176 18.2363 -16.879 -129.091 86.9796 -154.776
lowerback 36.1654 -0.806453 1.39817
upperback 9.03145 0.878371 2.68254
thorax -8.04181 0.786979 1.71847
lowerneck -21.8475 -3.24766 -5.94143
upperneck 2.852 -3.05751 5.26382
head 4.45979 -1.16444 2.31442
rclavicle -2.66371e-014 7.95139e-016
rhumerus 11.0348 16.9469 -79.861
rradius 40.567
rwrist -0.308927
rhand -27.6722 -27.2048
rfingers 7.12502
rthumb -1.06931 -57.1819
lclavicle -2.66371e-014 7.95139e-016
lhumerus 4.92537 -30.8411 86.0386
lradius 51.6712
lwrist 49.4993
lhand -28.1288 18.557
lfingers 7.12502
lthumb -1.51031 48.5314
rfemur -33.7123 -5.49093 15.1283
rtibia 15.5931
rfoot -4.80139 -13.2848
rtoes -8.02206
lfemur -44.23 -2.59844 -10.2933
ltibia 31.5348
lfoot -12.3077 4.09431
ltoes -15.7179
160
root -11.3891 18.2691 -16.8747 -124.918 87.0015 -150.173
lowerback 34.9942 -0.76424 1.29996
upperback 8.88686 0.809805 2.70971
thorax -7.90592 0.737719 1.81336
lowerneck -23.1447 -3.15135 -5.64728
upperneck 3.93158 -2.95176 5.0484
head 4.97706 -1.10688 2.20313
rclavicle -8.74653e-015 -2.06736e-014
rhumerus 9.13704 17.4756 -80.6687
rradius 41.4685
rwrist -0.0762209
rhand -27.5387 -25.9737
rfingers 7.12502
rthumb -0.940365 -55.9513
lclavicle -8.74653e-015 -2.06736e-014
lhumerus 2.45183 -31.4055 86.5259
lradius 52.7368
lwrist 50.2131
lhand -27.7893 18.7843
lfingers 7.12502
lthumb -1.18242 48.7608
rfemur -31.474 -4.51849 14.9426
rtibia 12.691
rfoot -3.94621 -13.9903
rtoes -6.69039
lfemur -43.0265 -3.14048 -9.81818
ltibia 30.555
lfoot -12.4609 4.8215
ltoes -15.3186
161
root -11.3579 18.2996 -16.8689 -121.605 87.0156 -146.474
lowerback 33.8029 -0.718444 1.20013
upperback 8.48722 0.732777 2.73332
thorax -7.90509 0.676686 1.92335
lowerneck -23.5939 -3.02469 -5.456
upperneck 4.63469 -2.83311 4.93972
head 5.25662 -1.05122 2.14869
rclavicle 2.18663e-014 7.95139e-015
rhumerus 6.91643 18.3698 -81.318
rradius 42.5856
rwrist -0.20018
rhand -27.3208 -25.2365
rfingers 7.12502
rthumb -0.729906 -55.215
lclavicle 2.18663e-014 7.95139e-015
lhumerus -0.407764 -32.0322 87.3148
lradius 53.7885
lwrist 50.871
lhand -27.5247 19.0389
lfingers 7.12502
lthumb -0.926824 49.0166
rfemur -28.9905 -4.24806 15.1275
rtibia 9.22379
rfoot -2.95102 -13.9332
rtoes -5.17529
lfemur -41.8589 -3.7332 -9.38436
ltibia 29.5537
lfoot -12.6219 5.5581
ltoes -14.9009
162
root -11.3241 18.327 -16.8628 -119.046 87.0131 -143.534
lowerback 32.2514 -0.657705 1.08434
upperback 8.39931 0.660796 2.69902
thorax -8.09862 0.633214 2.13145
lowerneck -23.484 -2.91489 -5.36746
upperneck 5.08953 -2.74663 4.94432
head 5.38115 -1.01332 2.14584
rclavicle -6.36111e-015 2.24627e-014
rhumerus 4.4442 19.5138 -81.843
rradius 43.9446
rwrist -0.671907
rhand -27.1839 -25.1599
rfingers 7.12502
rthumb -0.597706 -55.1388
lclavicle -6.36111e-015 2.24627e-014
lhumerus -3.49855 -32.7319 88.3644
lradius 54.827
lwrist 51.407
lhand -27.3765 19.3066
lfingers 7.12502
lthumb -0.783699 49.2849
rfemur -25.3965 -4.0736 15.2116
rtibia 3.74902
rfoot -1.03622 -13.7976
rtoes -3.7134
lfemur -40.7114 -4.40412 -8.97307
ltibia 28.5784
lfoot -12.8149 6.34967
ltoes -14.699
163
root -11.288 18.3504 -16.8575 -117.273 86.9869 -141.355
lowerback 31.0362 -0.617822 1.04683
upperback 7.84491 0.599623 2.73128
thorax -8.16425 0.577008 2.21025
lowerneck -23.3115 -2.85729 -5.35576
upperneck 5.508 -2.71986 5.03765
head 5.49064 -0.999695 2.17753
rclavicle -3.73715e-014 -4.96962e-014
rhumerus 1.86292 20.7094 -82.3146
rradius 45.5257
rwrist -1.37603
rhand -27.234 -25.6105
rfingers 7.12502
rthumb -0.646052 -55.5893
lclavicle -3.73715e-014 -4.96962e-014
lhumerus -6.57118 -33.4871 89.5304
lradius 55.8634
lwrist 51.7887
lhand -27.3664 19.545
lfingers 7.12502
lthumb -0.773943 49.5233
rfemur -22.6858 -3.9745 15.224
rtibia 3.8763e-014
rfoot 0.0732062 -13.7268
rtoes -2.41395
lfemur -39.5737 -5.17636 -8.57439
ltibia 27.6634
lfoot -13.0505 7.21178
ltoes -14.7788
164
root -11.2498 18.369 -16.8529 -115.351 86.9641 -138.962
lowerback 29.881 -0.564225 1.04516
upperback 7.31802 0.57562 2.754
thorax -8.21368 0.540386 2.24299
lowerneck -23.2323 -2.85828 -5.38592
upperneck 5.98638 -2.7619 5.17669
head 5.63836 -1.01508 2.22288
rclavicle -5.04913e-014 -6.93758e-014
rhumerus -0.672119 21.7483 -82.8371
rradius 47.1216
rwrist -2.15601
rhand -27.4829 -26.2478
rfingers 7.12502
rthumb -0.886526 -56.2257
lclavicle -5.04913e-014 -6.93758e-014
lhumerus -9.57215 -34.297 90.7452
lradius 56.9294
lwrist 52.0208
lhand -27.4991 19.697
lfingers 7.12502
lthumb -0.902149 49.6748
rfemur -21.935 -3.82314 15.2904
rtibia 2.06736e-014
rfoot -0.551862 -13.7728
rtoes -1.25798
lfemur -38.393 -6.01503 -8.18387
ltibia 26.8214
lfoot -13.3433 8.13082
ltoes -14.9754
165
root -11.2111 18.3848 -16.8456 -113.276 86.9531 -136.523
lowerback 28.746 -0.481826 1.00714
upperback 6.68922 0.575854 2.76947
thorax -8.37631 0.513844 2.28117
lowerneck -23.1357 -2.87588 -5.40602
upperneck 6.57621 -2.83598 5.30542
head 5.82109 -1.04722 2.25989
rclavicle -2.0276e-014 -4.17448e-014
rhumerus -4.40925 22.3167 -83.8174
rradius 49.5869
rwrist -2.54068
rhand -27.8783 -26.6387
rfingers 7.12502
rthumb -1.26833 -56.6146
lclavicle -2.0276e-014 -4.17448e-014
lhumerus -12.7149 -35.0947 92.0575
lradius 58.0755
lwrist 52.1307
lhand -27.7669 19.7169
lfingers 7.12502
lthumb -1.16074 49.6935
rfemur -21.307 -3.66971 15.3545
rtibia -5.56597e-015
rfoot -1.13562 -13.7943
rtoes -0.0455324
lfemur -37.3674 -6.82777 -7.80159
ltibia 26.0505
lfoot -13.6521 9.01694
ltoes -15.0108
